<?xml version="1.0" encoding="UTF-8" standalone="no"?>
<!DOCTYPE svg PUBLIC "-//W3C//DTD SVG 1.1//EN" "http://www.w3.org/Graphics/SVG/1.1/DTD/svg11.dtd">
<svg xmlns="http://www.w3.org/2000/svg" version="1.1" viewBox="0.00 0.00 500.00 500.00">
<g stroke-width="2.00" fill="none" stroke-linecap="butt">
<path stroke="#8590e5" vector-effect="non-scaling-stroke" d="
  M 288.28 278.75
  A 0.34 0.34 0.0 0 1 288.28 279.09
  L 236.00 368.89
  A 0.34 0.34 0.0 0 1 235.41 368.89
  L 76.19 91.96
  A 0.34 0.34 0.0 0 1 76.49 91.45
  L 395.68 91.57
  A 0.34 0.34 0.0 0 1 395.98 92.08
  L 325.01 215.27
  A 0.34 0.34 0.0 0 0 325.30 215.78
  L 363.51 216.28
  A 0.34 0.34 0.0 0 0 363.81 216.11
  L 455.16 58.28
  A 0.34 0.34 0.0 0 0 454.87 57.77
  L 17.49 57.99
  A 0.34 0.34 0.0 0 0 17.20 58.50
  L 235.60 435.99
  A 0.34 0.34 0.0 0 0 236.18 435.99
  L 345.91 247.21
  A 0.34 0.34 0.0 0 0 345.62 246.70
  L 270.26 246.71
  A 0.34 0.34 0.0 0 0 269.97 247.22
  L 288.28 278.75"
/>
<path stroke="#8590e5" vector-effect="non-scaling-stroke" d="
  M 184.23 154.08
  A 0.33 0.33 0.0 0 1 184.52 153.59
  L 327.49 152.99
  A 0.33 0.33 0.0 0 0 327.78 152.82
  L 344.40 121.77
  A 0.33 0.33 0.0 0 0 344.11 121.29
  L 126.53 120.97
  A 0.33 0.33 0.0 0 0 126.24 121.47
  L 236.15 309.88
  A 0.33 0.33 0.0 0 0 236.72 309.88
  L 255.36 278.91
  A 0.33 0.33 0.0 0 0 255.36 278.57
  L 219.85 217.04
  A 0.33 0.33 0.0 0 1 220.14 216.54
  L 290.83 217.00
  A 0.33 0.33 0.0 0 0 291.12 216.83
  L 309.89 183.05
  A 0.33 0.33 0.0 0 0 309.60 182.56
  L 199.98 181.93
  A 0.33 0.33 0.0 0 1 199.70 181.76
  L 184.23 154.08"
/>
</g>
<path fill="#ffffff" d="
  M 0.00 0.00
  L 500.00 0.00
  L 500.00 500.00
  L 0.00 500.00
  L 0.00 0.00
  Z
  M 288.28 278.75
  A 0.34 0.34 0.0 0 1 288.28 279.09
  L 236.00 368.89
  A 0.34 0.34 0.0 0 1 235.41 368.89
  L 76.19 91.96
  A 0.34 0.34 0.0 0 1 76.49 91.45
  L 395.68 91.57
  A 0.34 0.34 0.0 0 1 395.98 92.08
  L 325.01 215.27
  A 0.34 0.34 0.0 0 0 325.30 215.78
  L 363.51 216.28
  A 0.34 0.34 0.0 0 0 363.81 216.11
  L 455.16 58.28
  A 0.34 0.34 0.0 0 0 454.87 57.77
  L 17.49 57.99
  A 0.34 0.34 0.0 0 0 17.20 58.50
  L 235.60 435.99
  A 0.34 0.34 0.0 0 0 236.18 435.99
  L 345.91 247.21
  A 0.34 0.34 0.0 0 0 345.62 246.70
  L 270.26 246.71
  A 0.34 0.34 0.0 0 0 269.97 247.22
  L 288.28 278.75
  Z
  M 184.23 154.08
  A 0.33 0.33 0.0 0 1 184.52 153.59
  L 327.49 152.99
  A 0.33 0.33 0.0 0 0 327.78 152.82
  L 344.40 121.77
  A 0.33 0.33 0.0 0 0 344.11 121.29
  L 126.53 120.97
  A 0.33 0.33 0.0 0 0 126.24 121.47
  L 236.15 309.88
  A 0.33 0.33 0.0 0 0 236.72 309.88
  L 255.36 278.91
  A 0.33 0.33 0.0 0 0 255.36 278.57
  L 219.85 217.04
  A 0.33 0.33 0.0 0 1 220.14 216.54
  L 290.83 217.00
  A 0.33 0.33 0.0 0 0 291.12 216.83
  L 309.89 183.05
  A 0.33 0.33 0.0 0 0 309.60 182.56
  L 199.98 181.93
  A 0.33 0.33 0.0 0 1 199.70 181.76
  L 184.23 154.08
  Z"
/>
<path fill="#0b21cb" d="
  M 288.28 278.75
  L 269.97 247.22
  A 0.34 0.34 0.0 0 1 270.26 246.71
  L 345.62 246.70
  A 0.34 0.34 0.0 0 1 345.91 247.21
  L 236.18 435.99
  A 0.34 0.34 0.0 0 1 235.60 435.99
  L 17.20 58.50
  A 0.34 0.34 0.0 0 1 17.49 57.99
  L 454.87 57.77
  A 0.34 0.34 0.0 0 1 455.16 58.28
  L 363.81 216.11
  A 0.34 0.34 0.0 0 1 363.51 216.28
  L 325.30 215.78
  A 0.34 0.34 0.0 0 1 325.01 215.27
  L 395.98 92.08
  A 0.34 0.34 0.0 0 0 395.68 91.57
  L 76.49 91.45
  A 0.34 0.34 0.0 0 0 76.19 91.96
  L 235.41 368.89
  A 0.34 0.34 0.0 0 0 236.00 368.89
  L 288.28 279.09
  A 0.34 0.34 0.0 0 0 288.28 278.75
  Z"
/>
<path fill="#0b21cb" d="
  M 184.23 154.08
  L 199.70 181.76
  A 0.33 0.33 0.0 0 0 199.98 181.93
  L 309.60 182.56
  A 0.33 0.33 0.0 0 1 309.89 183.05
  L 291.12 216.83
  A 0.33 0.33 0.0 0 1 290.83 217.00
  L 220.14 216.54
  A 0.33 0.33 0.0 0 0 219.85 217.04
  L 255.36 278.57
  A 0.33 0.33 0.0 0 1 255.36 278.91
  L 236.72 309.88
  A 0.33 0.33 0.0 0 1 236.15 309.88
  L 126.24 121.47
  A 0.33 0.33 0.0 0 1 126.53 120.97
  L 344.11 121.29
  A 0.33 0.33 0.0 0 1 344.40 121.77
  L 327.78 152.82
  A 0.33 0.33 0.0 0 1 327.49 152.99
  L 184.52 153.59
  A 0.33 0.33 0.0 0 0 184.23 154.08
  Z"
/>
</svg>
